<svg width="60" height="61" viewBox="0 0 60 61" fill="none" xmlns="http://www.w3.org/2000/svg">
<path fill-rule="evenodd" clip-rule="evenodd" d="M35.9374 36.6817L26.5624 30.4317L35.9374 24.1817C36.0606 24.0996 36.1663 23.9941 36.2486 23.8711C36.331 23.7482 36.3883 23.6102 36.4173 23.4651C36.4463 23.32 36.4465 23.1707 36.4178 23.0255C36.389 22.8804 36.332 22.7423 36.2499 22.6192C36.1679 22.4961 36.0624 22.3903 35.9394 22.308C35.8165 22.2256 35.6785 22.1683 35.5334 22.1393C35.3883 22.1103 35.2389 22.1101 35.0938 22.1389C34.9486 22.1676 34.8106 22.2246 34.6874 22.3067L24.0599 29.3917C23.8888 29.5058 23.7484 29.6605 23.6513 29.8419C23.5542 30.0233 23.5034 30.2259 23.5034 30.4317C23.5034 30.6374 23.5542 30.84 23.6513 31.0214C23.7484 31.2029 23.8888 31.3575 24.0599 31.4717L34.6874 38.5567C34.8106 38.6387 34.9486 38.6958 35.0938 38.7245C35.2389 38.7532 35.3883 38.753 35.5334 38.724C35.6785 38.695 35.8165 38.6377 35.9394 38.5554C36.0624 38.473 36.1679 38.3673 36.2499 38.2442C36.332 38.1211 36.389 37.983 36.4178 37.8378C36.4465 37.6927 36.4463 37.5433 36.4173 37.3982C36.3883 37.2531 36.331 37.1152 36.2486 36.9922C36.1663 36.8693 36.0606 36.7637 35.9374 36.6817Z" fill="#09B451"/>
<rect x="0.5" y="0.931641" width="59" height="59" rx="29.5" stroke="#09B451"/>
</svg>
