<svg width="40" height="40" viewBox="0 0 40 40" fill="none" xmlns="http://www.w3.org/2000/svg">
<rect width="40" height="40" rx="20" fill="#09B451"/>
<g clip-path="url(#clip0_1_956)">
<path d="M18.5428 31.9101C16.4023 31.6326 14.1988 30.7146 12.5938 29.4298C8.98026 26.5468 7.34001 21.9921 8.27751 17.4688C8.67951 15.5158 9.72651 13.4608 11.0668 11.9803C12.0541 10.8692 13.2447 9.95709 14.5745 9.29309C16.34 8.39834 18.0275 7.99634 20.0195 7.99634C21.449 7.99634 22.598 8.18384 23.9143 8.63309C25.6435 9.22622 27.2144 10.2063 28.5074 11.4986C29.8004 12.791 30.7813 14.3614 31.3753 16.0903C32.0788 18.1528 32.207 20.3481 31.7578 22.5238C31.3985 24.2428 30.4723 26.1763 29.3323 27.5743C28.8635 28.1526 27.785 29.1838 27.2188 29.6016C25.5247 30.8597 23.5324 31.6553 21.4378 31.9101C20.8205 31.9881 19.1405 31.9843 18.5435 31.9101H18.5428ZM21.8128 30.9066C24.7365 30.4166 27.3458 28.7852 29.0668 26.3713C31.094 23.5236 31.637 19.7031 30.4925 16.3716C30.2233 15.5901 29.555 14.2858 29.0668 13.5981C28.5238 12.8286 27.1798 11.4808 26.4065 10.9378C25.6565 10.4068 24.3793 9.76184 23.5078 9.47684C21.9346 8.95419 20.2642 8.79169 18.6198 9.00134C16.9754 9.211 15.3992 9.78744 14.0075 10.6881C12.6981 11.5482 11.5789 12.6675 10.7188 13.9768C9.81834 15.3678 9.24201 16.9432 9.03236 18.5869C8.8227 20.2305 8.98509 21.9002 9.50751 23.4726C9.79626 24.3433 10.4413 25.6251 10.9685 26.3751C11.5153 27.1446 12.8593 28.4923 13.6288 29.0353C14.3203 29.5198 15.6208 30.1873 16.4023 30.4611C18.1417 31.0521 20.0001 31.2051 21.8128 30.9066ZM17.6563 26.8828C17.0955 26.7983 16.5576 26.6016 16.0745 26.3046C15.641 26.0271 12.3673 22.8201 12.2075 22.5193C12.0238 22.1758 12.344 21.5503 12.8015 21.3591L13.016 21.2691L12.356 20.5971C11.993 20.2258 11.6488 19.8313 11.594 19.7218C11.465 19.4721 11.4613 18.9366 11.582 18.6981C11.633 18.6006 11.7538 18.4521 11.8475 18.3696C12.008 18.2368 12.023 18.1896 12.008 17.8536C11.9885 17.5566 12.0155 17.4396 12.1445 17.2168C12.332 16.8966 12.719 16.6813 13.0978 16.6776C13.3085 16.6776 13.3633 16.6506 13.4533 16.4938C13.688 16.0836 14.3593 15.9351 14.8715 16.1856L15.149 16.3183L15.2855 16.1856C15.473 16.0138 15.848 15.8616 16.094 15.8616C16.586 15.8616 17.2813 16.4278 17.2813 16.8261C17.2813 17.3023 16.8478 17.3848 16.418 16.9903C16.133 16.7248 15.9883 16.6971 15.8713 16.8846C15.8128 16.9746 15.953 17.1426 16.793 17.9901C17.633 18.8338 17.7853 19.0138 17.7853 19.1736C17.7786 19.296 17.7265 19.4116 17.6391 19.4976C17.5517 19.5836 17.4353 19.6339 17.3128 19.6386C17.1605 19.6386 16.9108 19.4196 15.758 18.2713C14.582 17.0991 14.3675 16.9116 14.2738 16.9708C14.0195 17.1313 14.1058 17.2483 15.4805 18.6268C16.2268 19.3768 16.8403 20.0406 16.8403 20.1036C16.8403 20.2326 16.7233 20.4711 16.6258 20.5333C16.5458 20.5685 16.4588 20.5846 16.3715 20.5806C16.211 20.5843 15.965 20.3616 14.657 19.0573C13.3445 17.7523 13.1098 17.5416 13.016 17.6001C12.758 17.7643 12.8443 17.8776 14.3405 19.3813C15.1573 20.1981 15.8405 20.9286 15.86 21.0066C15.9028 21.1476 15.809 21.3936 15.6845 21.4791C15.6019 21.5142 15.5124 21.5304 15.4228 21.5263C15.2623 21.5263 15.0598 21.3508 13.9775 20.2686C12.9343 19.2253 12.692 19.0108 12.5593 19.0228C12.1843 19.0656 12.317 19.2336 14.2543 21.1753C15.9343 22.8591 16.1488 23.0976 16.1488 23.2731C16.1505 23.3375 16.136 23.4014 16.1066 23.4587C16.0773 23.5161 16.034 23.5652 15.9808 23.6016C15.68 23.8401 15.563 23.7853 14.8048 23.0511C14.4178 22.6798 14.0195 22.3206 13.9138 22.2538C13.7225 22.1368 13.238 22.0858 13.148 22.1796C13.1165 22.2066 13.8313 22.9611 14.7343 23.8551C16.238 25.3431 16.4098 25.4961 16.8515 25.7068C17.2585 25.9095 17.7066 26.0156 18.1613 26.0169C18.6159 26.0182 19.0647 25.9146 19.4728 25.7143C20.7343 25.1128 21.434 23.6518 21.0898 22.3273C20.918 21.6673 20.7028 21.3508 19.8358 20.4561C18.836 19.4323 18.605 19.1511 18.359 18.6591C18.0853 18.1086 17.9683 17.5731 17.9683 16.9048C17.9683 16.1818 18.0425 15.8541 18.3628 15.1783C18.6673 14.5341 19.304 13.8583 19.9333 13.5103C21.1678 12.8226 22.793 12.8811 23.972 13.6513C24.2068 13.8036 25.0543 14.6008 26.1088 15.6591C27.6755 17.2296 27.8548 17.4328 27.8548 17.6121C27.8548 18.0381 27.5068 18.5106 27.1205 18.6081C26.9758 18.6471 27.0035 18.6861 27.6598 19.3543C28.0423 19.7413 28.3978 20.1591 28.4525 20.2881C28.6363 20.7298 28.5538 21.1588 28.2178 21.5106C28.046 21.6906 28.0228 21.7528 28.0183 22.1121C28.0145 22.4286 27.9793 22.5613 27.854 22.7413C27.7551 22.8878 27.6226 23.0085 27.4677 23.0934C27.3127 23.1783 27.1397 23.225 26.963 23.2296C26.7208 23.2296 26.6743 23.2528 26.5528 23.4366C26.279 23.8588 25.568 24.0066 25.1075 23.7336L24.8773 23.5971L24.713 23.7576C24.35 24.1056 23.7635 24.1521 23.3188 23.8671C22.9595 23.6406 22.694 23.3241 22.694 23.1246C22.694 22.9491 22.9483 22.6596 23.1043 22.6596C23.2528 22.6596 23.4523 22.7766 23.6788 22.9881C23.9053 23.2026 24.101 23.2026 24.1318 22.9843C24.1475 22.8673 23.96 22.6446 23.2018 21.8826C22.4045 21.0778 22.2523 20.8941 22.2523 20.7381C22.2505 20.651 22.2666 20.5645 22.2995 20.4838C22.3858 20.3548 22.628 20.2648 22.7758 20.3038C22.8538 20.3233 23.5138 20.9331 24.2368 21.6553C24.9635 22.3821 25.6003 22.9753 25.6588 22.9753C25.8193 22.9753 25.9243 22.8148 25.85 22.6783C25.8148 22.6161 25.2013 21.9868 24.4903 21.2758C23.3773 20.1666 23.1973 19.9596 23.1973 19.7953C23.1936 19.7069 23.2098 19.6188 23.2445 19.5373C23.3113 19.4398 23.5453 19.3228 23.678 19.3228C23.7365 19.3228 24.4708 20.0061 25.3108 20.8423C26.8498 22.3738 26.963 22.4593 27.1235 22.2058C27.182 22.1121 26.9713 21.8736 25.6663 20.5648C24.3185 19.2133 24.1393 19.0101 24.1393 18.8346C24.1393 18.7138 24.194 18.5886 24.2803 18.5106C24.5653 18.2413 24.6515 18.2961 26.0383 19.6746C27.3508 20.9833 27.4678 21.0688 27.6283 20.8191C27.6868 20.7253 27.4213 20.4366 25.7923 18.8031C24.0185 17.0218 23.8903 16.8771 23.8903 16.6701C23.8903 16.3573 24.0703 16.2088 24.4175 16.2328C24.4798 16.2366 24.8548 16.5531 25.2418 16.9318C25.6325 17.3106 26.054 17.6661 26.1793 17.7208C26.4253 17.8221 26.7103 17.8378 26.8318 17.7598C26.9488 17.6856 23.7065 14.4943 23.285 14.2716C22.9236 14.0765 22.5261 13.9575 22.117 13.9218C21.7079 13.8861 21.2958 13.9346 20.906 14.0641C20.5163 14.1937 20.1573 14.4016 19.8509 14.6751C19.5446 14.9487 19.2975 15.282 19.1248 15.6546C18.9215 16.0881 18.8945 16.2171 18.8668 16.7758C18.8435 17.3031 18.863 17.4673 18.9763 17.8033C19.1795 18.4011 19.355 18.6471 20.2655 19.5771C21.2503 20.5851 21.4378 20.8153 21.6875 21.3546C22.391 22.8546 22.094 24.5893 20.9338 25.7451C20.051 26.6316 18.848 27.0456 17.6563 26.8821V26.8828Z" fill="white"/>
</g>
<defs>
<clipPath id="clip0_1_956">
<rect width="24" height="24" fill="white" transform="translate(8 8)"/>
</clipPath>
</defs>
</svg>
