<svg width="60" height="61" viewBox="0 0 60 61" fill="none" xmlns="http://www.w3.org/2000/svg">
<path fill-rule="evenodd" clip-rule="evenodd" d="M24.0626 36.6817L33.4376 30.4317L24.0626 24.1817C23.9394 24.0996 23.8337 23.9941 23.7514 23.8711C23.669 23.7482 23.6117 23.6102 23.5827 23.4651C23.5537 23.32 23.5535 23.1707 23.5822 23.0255C23.611 22.8804 23.668 22.7423 23.7501 22.6192C23.8321 22.4961 23.9376 22.3903 24.0606 22.308C24.1835 22.2256 24.3215 22.1683 24.4666 22.1393C24.6117 22.1103 24.7611 22.1101 24.9062 22.1389C25.0514 22.1676 25.1894 22.2246 25.3126 22.3067L35.9401 29.3917C36.1112 29.5058 36.2516 29.6605 36.3487 29.8419C36.4458 30.0233 36.4966 30.2259 36.4966 30.4317C36.4966 30.6374 36.4458 30.84 36.3487 31.0214C36.2516 31.2029 36.1112 31.3575 35.9401 31.4717L25.3126 38.5567C25.1894 38.6387 25.0514 38.6958 24.9062 38.7245C24.7611 38.7532 24.6117 38.753 24.4666 38.724C24.3215 38.695 24.1835 38.6377 24.0606 38.5554C23.9376 38.473 23.8321 38.3673 23.7501 38.2442C23.668 38.1211 23.611 37.983 23.5822 37.8378C23.5535 37.6927 23.5537 37.5433 23.5827 37.3982C23.6117 37.2531 23.669 37.1152 23.7514 36.9922C23.8337 36.8693 23.9394 36.7637 24.0626 36.6817Z" fill="#09B451"/>
<rect x="-0.5" y="0.5" width="59" height="59" rx="29.5" transform="matrix(-1 0 0 1 59 0.431641)" stroke="#09B451"/>
</svg>
